<svg width="128" height="116" viewBox="0 0 128 116" fill="none" xmlns="http://www.w3.org/2000/svg">
<path d="M125.412 97.7406C124.96 98.491 124.12 98.6147 123.446 98.0515L113.988 85.468C114.17 89.596 114.072 93.7536 114.091 97.898C113.78 98.7733 112.419 98.6649 112.379 97.6937C112.708 93.0511 111.964 87.8515 112.381 83.2751C112.494 82.0344 113.756 82.1485 114.362 83.0123L123.759 95.6069C123.976 95.6734 123.925 95.4768 123.922 95.3367C123.903 94.6125 123.722 93.722 123.7 92.996C123.594 89.6603 123.779 86.3036 123.714 82.966C123.822 82.202 125.033 82.2097 125.412 82.8V97.7406Z" fill="#C49332"/>
<path d="M68.5006 98.0073C68.4825 98.0719 68.1388 98.3666 68.0462 98.4069C67.374 98.6992 66.8225 98.1302 66.7922 97.4736C67.1199 92.9999 66.3533 87.8945 66.7937 83.4951C66.8857 82.5763 67.4494 82.0186 68.2914 82.6649L74.5335 92.2959L80.6732 82.7465C81.2495 82.0896 82.1706 82.3664 82.1731 83.2751L82.1617 97.7876C81.9895 98.89 80.4596 98.4818 80.4596 97.7939V86.3216L74.9474 94.6316C74.554 94.8887 74.1233 94.7015 73.7918 94.4265C72.2966 92.1129 70.8945 89.725 69.357 87.44C69.1381 87.1147 68.8715 86.5246 68.5006 86.4283V98.0073Z" fill="#C49332"/>
<path d="M56.4177 94.1296L47.0031 94.1079L44.8009 98.2254C44.0215 98.9373 42.8727 97.953 43.5305 97.0623L51.0396 82.3702C51.5038 81.961 52.1629 82.1472 52.4662 82.6575L59.9075 97.3101C60.2597 98.3228 59.2326 98.6433 58.4671 98.2172L56.4177 94.1296ZM55.5805 92.618L51.5774 84.8264L47.7858 92.618H55.5805Z" fill="#C49332"/>
<path d="M92.6539 94.1348C92.4174 94.2723 91.0945 97.3843 90.7309 97.9214C89.9964 99.0065 88.6961 98.3008 89.1649 97.2091L96.5992 82.5494C97.6194 81.5094 98.0998 82.6151 98.5606 83.438C101.055 87.8917 103.064 92.7726 105.576 97.2363C106.012 98.2864 104.974 98.6615 104.168 98.2173L101.958 94.1292L92.6539 94.1348ZM101.281 92.6181L97.2781 84.8265L93.3797 92.6181H101.281Z" fill="#C49332"/>
<path d="M4.08345 82.6164C4.24097 82.7733 4.31227 83.1565 4.33271 83.3815C4.5823 86.1291 4.10379 89.2649 4.32318 92.0349C4.80714 98.1457 14.77 98.4919 15.3234 91.7093C15.5553 88.8658 15.1346 85.749 15.348 82.8763C15.5485 82.0091 17.1638 82.1934 17.0384 83.1685C16.8261 86.1187 17.3117 89.4321 17.0205 92.3383C16.2133 100.395 3.16887 100.684 2.51318 91.8163C2.30648 89.0207 2.66635 85.9921 2.50944 83.1711C2.49819 82.3893 3.6081 82.1428 4.08345 82.6164Z" fill="#C49332"/>
<path d="M27.3915 96.6735H36.948C36.9737 96.6735 37.3735 96.8903 37.3991 96.9161C37.8318 97.3518 37.5883 98.1973 36.9417 98.2679C33.5924 98.0676 29.8943 98.5563 26.5866 98.2783C26.0212 98.2308 25.6632 98.1335 25.6782 97.4788L25.6898 82.9668C25.8414 82.0008 27.3915 82.3418 27.3915 82.8534L27.3915 96.6735Z" fill="#C49332"/>
<path d="M31.4293 109.063C31.4293 110.809 30.0132 112.224 28.2664 112.224C26.5196 112.224 25.1035 110.809 25.1035 109.063C25.1035 107.317 26.5196 105.902 28.2664 105.902C30.0132 105.902 31.4293 107.317 31.4293 109.063ZM28.1159 106.94C25.9142 107.114 25.6687 110.429 27.5816 111.05C30.3586 111.953 31.1169 107.831 28.9922 107.08C28.7654 106.999 28.3563 106.921 28.1159 106.94Z" fill="#C49332"/>
<path d="M103.279 109.058C103.279 110.802 101.865 112.216 100.12 112.216C98.3746 112.216 96.96 110.802 96.96 109.058C96.96 107.314 98.3746 105.9 100.12 105.9C101.865 105.9 103.279 107.314 103.279 109.058ZM99.9794 106.943C97.4069 107.083 97.6248 111.384 100.265 111.19C102.76 111.007 102.662 106.797 99.9794 106.943Z" fill="#C49332"/>
<path d="M107.741 105.958C109.949 106.218 110.401 108.853 108.32 109.65L109.716 112.146L108.327 112.095C108.117 111.968 107.389 110.163 107.053 109.848C106.829 109.637 106.3 109.639 106.3 109.853V112.147H105.125V105.958C105.956 106.028 106.929 105.862 107.741 105.958ZM106.3 108.839H107.848C108.371 108.839 108.646 107.668 108.272 107.241C107.996 106.926 106.635 106.746 106.3 107.078V108.839Z" fill="#C49332"/>
<path d="M65.0298 105.958C67.3636 106.215 67.8278 108.883 65.6159 109.641L67.0046 112.147L65.7245 112.094C65.3303 111.699 64.6158 109.781 64.1752 109.693C64.0272 109.663 63.8496 109.705 63.6951 109.693V112.148H62.5205V105.958C63.3227 106.022 64.2435 105.871 65.0298 105.958ZM63.6951 108.839H65.2433C65.4188 108.839 65.7628 108.429 65.808 108.229C66.1151 106.871 64.6555 106.849 63.6951 106.918V108.839Z" fill="#C49332"/>
<path d="M81.2602 105.958C83.5421 106.227 83.9982 108.874 81.8477 109.587L83.2356 112.146L81.8644 112.13C81.6396 111.812 80.7017 109.807 80.5447 109.716C80.4097 109.638 80.1555 109.694 79.9958 109.711L79.8187 109.853V112.148H78.751V105.958C79.5486 106.025 80.4809 105.866 81.2602 105.958ZM79.8187 108.839H81.367C81.5818 108.839 81.9734 108.333 82.02 108.095C82.2488 106.929 80.5786 106.645 79.8187 107.078V108.839Z" fill="#C49332"/>
<path d="M56.5417 105.958V110.173C56.5417 110.654 57.4108 111.189 57.8764 111.189C58.4137 111.189 59.2112 110.614 59.2112 110.067V105.958H60.3857V109.96C60.3857 110.07 60.2043 110.745 60.1445 110.893C59.4618 112.582 56.4811 112.649 55.6663 111.048C55.581 110.881 55.3672 110.108 55.3672 109.96V105.958H56.5417Z" fill="#C49332"/>
<path d="M23.3333 107.878L22.0211 107.881C21.3549 106.593 19.4071 106.698 18.7942 107.984C17.9536 109.748 19.4511 111.893 21.3403 110.956C21.6937 110.78 21.9637 110.296 22.1255 110.246C22.453 110.146 22.9754 110.275 23.3333 110.227C22.5873 112.861 18.5699 112.824 17.6228 110.332C16.0797 106.271 21.7781 104.043 23.3333 107.878Z" fill="#C49332"/>
<path d="M42.447 105.958V110.173C42.447 110.782 43.3285 111.222 43.8762 111.183C44.4638 111.141 45.1164 110.547 45.1164 109.96V105.958H46.1842V110.494C46.1842 110.541 45.9076 111.13 45.8468 111.224C44.9235 112.644 42.1895 112.551 41.4962 110.91C41.4477 110.795 41.2725 110.244 41.2725 110.173V105.958H42.447Z" fill="#C49332"/>
<path d="M53.4449 105.959L51.5427 109.087L53.4449 112.146L52.0782 112.125L50.8278 110.119C50.4716 110.115 49.849 111.837 49.5558 112.049C49.2529 112.269 48.5908 112.095 48.2129 112.146L50.1184 109.018L48.2134 105.958L49.4937 106.012L50.8301 107.985C51.1298 108.06 51.8123 106.268 52.1017 106.056C52.4013 105.837 53.0692 106.01 53.4449 105.959Z" fill="#C49332"/>
<path d="M95.0883 107.558L93.8725 107.565C93.6391 106.414 91.4072 106.842 92.1568 107.98C92.8048 108.964 95.2937 108.341 95.2019 110.495C95.102 112.835 90.8692 112.77 90.8167 110.44L92.0869 110.452C92.1674 111.808 94.6182 111.322 93.9009 110.078C93.3664 109.151 90.7578 109.729 90.8083 107.612C90.8614 105.39 95.0007 105.302 95.0883 107.558Z" fill="#C49332"/>
<path d="M15.5393 105.958V106.918H13.1902V108.519H15.3257V109.48H13.1902V111.187H15.5393V112.148H12.0156V105.958H15.5393Z" fill="#C49332"/>
<path d="M88.788 105.958V106.918H86.599C86.2666 107.32 86.5097 108.013 86.4389 108.519H88.5744V109.48H86.4389V111.187H88.788V112.148H85.3711V105.958H88.788Z" fill="#C49332"/>
<path d="M70.7422 109.96L68.6074 106.011L70.0058 106.024L71.3816 108.839L72.6812 105.975L73.945 105.958L71.9168 109.96V112.148H70.7422V109.96Z" fill="#C49332"/>
<path d="M115.909 105.958V106.918H114.308V112.148H113.133V106.918H111.425V105.958H115.909Z" fill="#C49332"/>
<path d="M37.4281 105.958V111.187H39.5637V112.148H36.3604V105.958H37.4281Z" fill="#C49332"/>
<path d="M104.484 3.61457V6.17582C101.621 6.51929 99.0791 7.20841 97.3498 9.66393C94.1316 14.2338 95.379 25.4348 95.1989 31.099C94.9651 38.4507 93.6961 45.8588 89.3454 51.9284C83.5241 60.0495 73.4567 63.854 63.9791 65.7924C54.4299 63.8485 44.2543 59.9595 38.4724 51.7149C32.974 43.8748 32.6778 34.3954 32.7249 25.1133C32.7502 20.1389 33.5731 11.1639 28.9214 7.90137C27.3195 6.77791 25.3502 6.43631 23.4404 6.17582V3.61457L26.7995 3.39673C39.3428 3.11871 50.4875 4.44525 53.6251 18.4283C56.1496 29.6791 54.0438 41.0396 60.1533 51.603C60.5575 52.3019 63.5172 56.7355 64.0541 56.6459C70.3029 50.1947 71.9485 41.3288 72.7707 32.6948C73.7479 22.4337 73.0638 10.0912 84.4115 5.48361C90.6435 2.95318 97.8854 3.27335 104.484 3.61457ZM32.4102 6.49651C32.3306 6.5683 33.4455 7.97724 33.5631 8.17119C37.2192 14.1996 35.4008 27.0272 36.0409 34.2954C36.9152 44.222 40.6472 51.8855 49.2893 57.1251C52.2403 58.9142 55.6045 60.3297 58.919 61.2262L61.5575 59.1593C61.88 58.795 61.0759 58.2908 60.8151 57.9849C54.6265 50.7269 53.0432 42.5 52.164 33.2284C51.4656 25.8619 51.8612 15.6059 45.4869 10.5542C41.7872 7.62209 37.0057 6.84592 32.4102 6.49651ZM95.621 6.49651C90.2283 6.87392 84.4753 7.93556 80.7769 12.2027C75.6432 18.1258 76.3089 30.1345 75.3188 37.696C74.2879 45.5699 71.8678 53.1396 66.2625 58.9482C66.2614 59.1228 68.7137 61.0621 68.9585 61.1649C69.3441 61.3268 70.4528 60.8623 70.9048 60.7111C83.634 56.4524 90.5774 48.188 91.8839 34.7226C92.6028 27.3138 90.5955 13.7391 94.681 7.7436L95.621 6.49651ZM63.8769 61.254C63.8106 61.2714 62.8781 62.0919 62.8393 62.1483C62.7621 62.2606 62.6752 62.2323 62.8393 62.365C63.6411 62.5863 64.4415 62.7265 65.188 62.2565C64.9547 62.0346 64.1386 61.1856 63.8769 61.254Z" fill="#C49332"/>
</svg>
